# xmcd
# 
# Track frame offsets:
#     150
#     10614
#     24460
#     38036
#     48676
#     60099
#     73828
#     87040
#     98045
#     110748
#     126575
#     146841
#     162254
#     173826
#     190975
#     207112
#     220352
#     234966
#     247374
#     262662
#     277538
#     294444
#     307480
# 
# Disc length: 4279
# 
# Revision: 1
# Processed by: cddbd v1.5.2PL0 Copyright (c) Steve Scherf et al.
# Submitted via: fre:ac v1.0.31
# 
DISCID=4e10b517
DTITLE=MTJ - Eesti kullafond CD2
DYEAR=2016
DGENRE=Country
TTITLE0=Ainult halba, ainult head
TTITLE1=Doktor Aeg
TTITLE2=Vana Cadillac
TTITLE3=Taevavärav
TTITLE4=Sajab valget lund
TTITLE5=Kitarr täis muusikat
TTITLE6=Tuulebluus
TTITLE7=Tine kodu
TTITLE8=Need asjad käivad kokku
TTITLE9=Merily
TTITLE10=Olen vaid pillimees
TTITLE11=Segi
TTITLE12=Valgus otsustab kõik
TTITLE13=Veel mulle meenud
TTITLE14=Väikene mees
TTITLE15=Kaotatud õnn
TTITLE16=Rändav maanteehing
TTITLE17=Varastatud süda
TTITLE18=Vana arm
TTITLE19=Võtke kuulda hr. president!
TTITLE20=Õpetajanna
TTITLE21=Vein, vein, vein, vein
TTITLE22=Kaob aeg
EXTD=
EXTT0=
EXTT1=
EXTT2=
EXTT3=
EXTT4=
EXTT5=
EXTT6=
EXTT7=
EXTT8=
EXTT9=
EXTT10=
EXTT11=
EXTT12=
EXTT13=
EXTT14=
EXTT15=
EXTT16=
EXTT17=
EXTT18=
EXTT19=
EXTT20=
EXTT21=
EXTT22=
PLAYORDER=
